<svg width="30.000000000000004" height="30.000000000000004" xmlns="http://www.w3.org/2000/svg">

 <g>
  <title>background</title>
  <rect fill="#376c53" id="canvas_background" height="32" width="32" y="-1" x="-1"/>
 </g>
 <g>
  <title>Layer 1</title>
  <path fill="#ffffff" id="svg_1" d="m26.953,23.576l-1.953,-17.576c0,-1.105 -0.895,-2 -2,-2l-8,0l-8,0c-1.105,0 -2,0.895 -2,2l-1.953,17.576c-0.029,0.137 -0.047,0.278 -0.047,0.424c0,1.105 0.895,2 2,2l10,0l10,0c1.105,0 2,-0.895 2,-2c0,-0.146 -0.018,-0.287 -0.047,-0.424zm-6.953,-14.668l0,1.092c0,2.757 -2.243,5 -5,5s-5,-2.243 -5,-5l0,-1.092c-0.581,-0.206 -1,-0.756 -1,-1.408c0,-0.828 0.672,-1.5 1.5,-1.5s1.5,0.672 1.5,1.5l0,2.5c0,1.654 1.346,3 3,3s3,-1.346 3,-3l0,-2.5c0,-0.828 0.672,-1.5 1.5,-1.5s1.5,0.672 1.5,1.5c0,0.652 -0.419,1.202 -1,1.408z"/>
 </g>
</svg>